# xmcd
#
# Track frame offsets: 
#        150
#        20209
#        38720
#        64974
#        83087
#        97356
#        115291
#        129221
#        145935
#        163459
#        180106
#        203566
#        216988
#        258990
#        279030
#
# Disc length: 3990 seconds
#
# Revision: 1
# Processed by: cddbd v1.5.2PL0 Copyright (c) Steve Scherf et al.
# Submitted via: ExactAudioCopy v1.0b3
#
DISCID=d80f940f
DTITLE=Shooter Jennings - Bad Magick - The Best of Shooter Jennings and 
DTITLE=the .357's
DYEAR=2009
DGENRE=Country
TTITLE0=4th of July
TTITLE1=Gone to Carolina
TTITLE2=Southern Comfort
TTITLE3=The Wolf
TTITLE4=Manifesto No. 1
TTITLE5=Walk of Life
TTITLE6=It Ain't Easy
TTITLE7=This Ol' Wheel
TTITLE8=Busted in Baylor County
TTITLE9=Slow Train
TTITLE10=Bad Magick
TTITLE11=Steady at the Wheel
TTITLE12=Daddy's Farm (Live)
TTITLE13=Lonesome Blues (Live)
TTITLE14=Living Proof
EXTD=
EXTT0=
EXTT1=
EXTT2=
EXTT3=
EXTT4=
EXTT5=
EXTT6=
EXTT7=
EXTT8=
EXTT9=
EXTT10=
EXTT11=
EXTT12=
EXTT13=
EXTT14=
PLAYORDER=
